<svg width="400" height="300" viewBox="0 0 400 300" fill="none" xmlns="http://www.w3.org/2000/svg">
  <rect width="400" height="300" fill="#F7FAFC"/>
  <circle cx="200" cy="150" r="80" fill="#4299E1" fill-opacity="0.2"/>
  <path d="M200 100C177.909 100 160 117.909 160 140C160 162.091 177.909 180 200 180C222.091 180 240 162.091 240 140C240 117.909 222.091 100 200 100ZM200 160C188.954 160 180 151.046 180 140C180 128.954 188.954 120 200 120C211.046 120 220 128.954 220 140C220 151.046 211.046 160 200 160Z" fill="#4299E1"/>
  <path d="M200 140C200 140 200 140 200 140C200 140 200 140 200 140C200 140 200 140 200 140C200 140 200 140 200 140Z" fill="#4299E1"/>
</svg> 