<svg width="400" height="300" viewBox="0 0 400 300" fill="none" xmlns="http://www.w3.org/2000/svg">
  <rect width="400" height="300" fill="#F7FAFC"/>
  <circle cx="200" cy="150" r="100" fill="#4299E1" fill-opacity="0.2"/>
  <path d="M200 100C155.817 100 120 135.817 120 180C120 224.183 155.817 260 200 260C244.183 260 280 224.183 280 180C280 135.817 244.183 100 200 100ZM200 240C166.863 240 140 213.137 140 180C140 146.863 166.863 120 200 120C233.137 120 260 146.863 260 180C260 213.137 233.137 240 200 240Z" fill="#4299E1"/>
  <path d="M200 140C177.909 140 160 157.909 160 180C160 202.091 177.909 220 200 220C222.091 220 240 202.091 240 180C240 157.909 222.091 140 200 140ZM200 200C188.954 200 180 191.046 180 180C180 168.954 188.954 160 200 160C211.046 160 220 168.954 220 180C220 191.046 211.046 200 200 200Z" fill="#4299E1"/>
  <path d="M200 180C200 180 200 180 200 180C200 180 200 180 200 180C200 180 200 180 200 180C200 180 200 180 200 180Z" fill="#4299E1"/>
</svg> 